<?xml version="1.0" encoding="UTF-8" standalone="no"?>
<!-- Created with Inkscape (http://www.inkscape.org/) -->

<svg
   xmlns:dc="http://purl.org/dc/elements/1.1/"
   xmlns:cc="http://creativecommons.org/ns#"
   xmlns:rdf="http://www.w3.org/1999/02/22-rdf-syntax-ns#"
   xmlns:svg="http://www.w3.org/2000/svg"
   xmlns="http://www.w3.org/2000/svg"
   xmlns:sodipodi="http://sodipodi.sourceforge.net/DTD/sodipodi-0.dtd"
   xmlns:inkscape="http://www.inkscape.org/namespaces/inkscape"
   width="169.82141pt"
   height="169.82141pt"
   viewBox="0 0 59.909222 59.90922"
   version="1.1"
   id="svg8"
   inkscape:version="0.92.5 (2060ec1f9f, 2020-04-08)"
   sodipodi:docname="qrCodeIcon.svg">
  <defs
     id="defs2" />
  <sodipodi:namedview
     id="base"
     pagecolor="#ffffff"
     bordercolor="#666666"
     borderopacity="1.0"
     inkscape:pageopacity="0.0"
     inkscape:pageshadow="2"
     inkscape:zoom="1.4"
     inkscape:cx="53.074588"
     inkscape:cy="116.60098"
     inkscape:document-units="mm"
     inkscape:current-layer="layer1"
     showgrid="false"
     fit-margin-left="25"
     units="pt"
     fit-margin-top="25"
     fit-margin-right="25"
     fit-margin-bottom="25"
     inkscape:window-width="1366"
     inkscape:window-height="706"
     inkscape:window-x="-8"
     inkscape:window-y="-8"
     inkscape:window-maximized="1" />
  <metadata
     id="metadata5">
    <rdf:RDF>
      <cc:Work
         rdf:about="">
        <dc:format>image/svg+xml</dc:format>
        <dc:type
           rdf:resource="http://purl.org/dc/dcmitype/StillImage" />
        <dc:title></dc:title>
      </cc:Work>
    </rdf:RDF>
  </metadata>
  <g
     inkscape:label="Layer 1"
     inkscape:groupmode="layer"
     id="layer1"
     transform="translate(-59.534113,-45.342894)">
    <path
       style="fill:#00768e;stroke-width:0.24154477;fill-opacity:1"
       d="m 68.353557,90.514826 v -5.91785 h 5.917843 5.917854 v 5.91785 5.917842 H 74.2714 68.353557 Z m 10.144879,0 V 86.287793 H 74.2714 70.044367 v 4.227033 4.227031 h 4.227033 4.227036 z m -6.763251,0 v -2.536222 h 2.536215 2.536223 v 2.536222 2.536213 H 74.2714 71.735185 Z m 10.144879,4.227031 v -1.690818 h 0.845405 0.845413 v 1.690818 1.690811 h -0.845413 -0.845405 z m 3.381628,-0.845409 v -2.536217 h -1.69081 -1.690818 V 89.66942 87.978604 h 0.845405 c 0.805153,0 0.845413,0.04026 0.845413,0.845405 v 0.845411 h 1.69081 1.690818 v -0.845411 c 0,-0.805145 -0.04026,-0.845405 -0.845413,-0.845405 -0.805145,0 -0.845405,-0.04026 -0.845405,-0.845406 0,-0.805152 -0.04026,-0.845405 -0.845405,-0.845405 -0.805152,0 -0.845405,-0.04026 -0.845405,-0.845412 0,-0.805145 -0.04026,-0.845405 -0.845413,-0.845405 -0.805145,0 -0.845405,-0.04026 -0.845405,-0.845405 v -0.845405 h -2.536215 -2.536226 v -1.690818 -1.69081 h -0.845405 -0.845405 v 1.69081 1.690818 h -1.690818 -1.69081 v -0.845405 c 0,-0.805153 0.04026,-0.845413 0.845405,-0.845413 0.805145,0 0.845405,-0.04026 0.845405,-0.845405 v -0.845405 h -1.69081 -1.690818 v 1.69081 1.690818 H 69.198962 68.353557 V 79.524538 76.14291 h 0.845405 c 0.805152,0 0.845405,-0.04026 0.845405,-0.845405 0,-0.805152 -0.04026,-0.845405 -0.845405,-0.845405 h -0.845405 v -1.690818 -1.69081 h 1.69081 1.690818 v -0.845405 -0.845413 h -1.690818 -1.69081 v -0.845405 -0.845405 h 1.69081 1.690818 v 0.845405 c 0,0.805152 0.04026,0.845405 0.845405,0.845405 0.805145,0 0.845405,-0.04026 0.845405,-0.845405 v -0.845405 h 1.690818 1.69081 v 0.845405 c 0,0.805152 0.04026,0.845405 0.845408,0.845405 0.805152,0 0.845405,-0.04026 0.845405,-0.845405 0,-0.805145 0.04026,-0.845405 0.845413,-0.845405 0.805145,0 0.845405,0.04026 0.845405,0.845405 0,0.805152 -0.04026,0.845405 -0.845405,0.845405 -0.805153,0 -0.845413,0.04026 -0.845413,0.845413 v 0.845405 h 1.690818 1.69081 v -0.845405 c 0,-0.805153 0.04026,-0.845413 0.845405,-0.845413 0.805153,0 0.845413,-0.04026 0.845413,-0.845405 0,-0.805145 -0.04026,-0.845405 -0.845413,-0.845405 h -0.845405 v -1.69081 -1.690818 h 0.845405 0.845413 v 1.690818 1.69081 h 0.845405 0.845405 v -2.536223 -2.536215 h -0.845405 c -0.805152,0 -0.845405,-0.04026 -0.845405,-0.845405 0,-0.805153 0.04026,-0.845413 0.845405,-0.845413 0.805145,0 0.845405,0.04026 0.845405,0.845413 v 0.845405 h 1.690818 1.69081 v -0.845405 c 0,-0.805153 -0.04026,-0.845413 -0.845405,-0.845413 -0.805153,0 -0.845405,-0.04026 -0.845405,-0.845405 0,-0.805145 -0.04026,-0.845405 -0.845413,-0.845405 -0.805145,0 -0.845405,-0.04026 -0.845405,-0.845405 0,-0.805152 -0.04026,-0.845412 -0.845405,-0.845412 -0.805152,0 -0.845405,-0.04026 -0.845405,-0.845405 0,-0.805145 -0.04026,-0.845405 -0.845413,-0.845405 -0.805145,0 -0.845405,-0.04026 -0.845405,-0.845407 0,-0.80515 0.04026,-0.845406 0.845405,-0.845406 0.805153,0 0.845413,0.04026 0.845413,0.845406 0,0.805147 0.04026,0.845407 0.845405,0.845407 0.805145,0 0.845405,-0.04026 0.845405,-0.845407 v -0.845406 h 2.536223 2.536215 v 0.845406 c 0,0.805147 0.04026,0.845407 0.845412,0.845407 0.805145,0 0.845405,-0.04026 0.845405,-0.845407 0,-0.80515 0.04026,-0.845406 0.845406,-0.845406 h 0.845405 v 1.690813 1.69081 h 0.845405 c 0.805152,0 0.845412,0.04026 0.845412,0.845412 0,0.805145 0.04026,0.845405 0.845403,0.845405 h 0.845409 v 1.69081 1.690818 h -0.845409 -0.845403 v -1.690818 -1.69081 h -0.845412 c -0.805145,0 -0.845405,-0.04026 -0.845405,-0.845405 0,-0.805152 -0.04026,-0.845412 -0.845405,-0.845412 h -0.845406 v 1.690817 1.69081 h 0.845406 c 0.805145,0 0.845405,0.04026 0.845405,0.845413 0,0.805145 -0.04026,0.845405 -0.845405,0.845405 -0.805146,0 -0.845406,-0.04026 -0.845406,-0.845405 0,-0.805153 -0.04026,-0.845413 -0.845405,-0.845413 -0.805152,0 -0.845412,0.04026 -0.845412,0.845413 0,0.805145 -0.04026,0.845405 -0.845405,0.845405 -0.805145,0 -0.845405,0.04026 -0.845405,0.845405 0,0.805152 0.04026,0.845405 0.845405,0.845405 0.805152,0 0.845405,0.04026 0.845405,0.845405 0,0.805153 0.04026,0.845413 0.845412,0.845413 0.805145,0 0.845405,-0.04026 0.845405,-0.845413 0,-0.805145 0.04026,-0.845405 0.845406,-0.845405 0.805145,0 0.845405,0.04026 0.845405,0.845405 0,0.805153 -0.04026,0.845413 -0.845405,0.845413 -0.805146,0 -0.845406,0.04026 -0.845406,0.845405 0,0.805145 0.04026,0.845405 0.845406,0.845405 0.805145,0 0.845405,0.04026 0.845405,0.845405 0,0.805152 0.04026,0.845405 0.845405,0.845405 h 0.845412 v -2.536215 -2.536223 h 0.845403 0.845409 v 2.536223 2.536215 h 0.845401 c 0.805149,0 0.845409,-0.04026 0.845409,-0.845405 0,-0.805145 0.04023,-0.845405 0.84541,-0.845405 0.805143,0 0.845403,0.04026 0.845403,0.845405 v 0.845405 h 4.22703 4.22703 v -0.845405 c 0,-0.805145 0.0402,-0.845405 0.84541,-0.845405 0.80515,0 0.84541,0.04026 0.84541,0.845405 0,0.805152 -0.0402,0.845405 -0.84541,0.845405 -0.80515,0 -0.84541,0.04026 -0.84541,0.845413 0,0.805145 0.0402,0.845405 0.84541,0.845405 h 0.84541 v 2.536215 2.536223 h -0.84541 c -0.80515,0 -0.84541,0.04026 -0.84541,0.845405 0,0.805152 0.0402,0.845412 0.84541,0.845412 h 0.84541 v 1.690811 1.69081 h -0.84541 -0.84541 v 1.690818 1.69081 h 0.84541 0.84541 v 1.690817 1.690811 h -0.84541 c -0.80515,0 -0.84541,0.04026 -0.84541,0.845405 0,0.805151 0.0402,0.845411 0.84541,0.845411 h 0.84541 v 3.381619 3.381629 h -0.84541 c -0.80515,0 -0.84541,-0.04023 -0.84541,-0.84541 v -0.845401 h -1.69081 -1.69081 v 0.845401 c 0,0.80515 -0.0402,0.84541 -0.84541,0.84541 -0.80515,0 -0.84541,-0.04023 -0.84541,-0.84541 v -0.845401 h -2.53621 -2.536223 v 0.845401 0.84541 h -1.69081 -1.690812 v -0.84541 c 0,-0.805141 -0.04026,-0.845401 -0.845412,-0.845401 H 93.715758 V 92.205638 89.66942 h -0.845405 c -0.805146,0 -0.845406,-0.04026 -0.845406,-0.845411 0,-0.805145 -0.04026,-0.845405 -0.845405,-0.845405 -0.805152,0 -0.845412,0.04026 -0.845412,0.845405 0,0.805151 -0.04026,0.845411 -0.845405,0.845411 H 88.64332 v 1.690811 1.690808 h 0.845405 0.845405 v 1.690818 1.690811 h -2.536215 -2.536223 z m 3.381628,0 c 0,-0.805149 -0.04026,-0.845409 -0.845405,-0.845409 -0.805153,0 -0.845405,0.04023 -0.845405,0.845409 0,0.805149 0.04026,0.845409 0.845405,0.845409 0.805145,0 0.845405,-0.04023 0.845405,-0.845409 z m 8.454067,0 v -0.845409 h 2.53622 2.536203 v -0.845401 -0.845407 h 2.53623 2.53622 v -2.536222 -2.536216 h 0.84541 c 0.80515,0 0.8454,-0.04026 0.8454,-0.845412 v -0.845405 h -1.69081 -1.69081 v -1.69081 -1.690818 h -0.84541 c -0.80515,0 -0.84541,-0.04026 -0.84541,-0.845405 0,-0.805145 -0.0402,-0.845405 -0.8454,-0.845405 h -0.84542 V 77.833727 76.14291 h 0.84542 c 0.80514,0 0.8454,0.04026 0.8454,0.845405 v 0.845412 h 1.69082 1.69081 v -0.845412 c 0,-0.805145 0.0402,-0.845405 0.84541,-0.845405 0.80515,0 0.8454,-0.04026 0.8454,-0.845405 V 74.4521 h -2.53621 -2.53623 v -1.690818 -1.69081 h -0.8454 c -0.80516,0 -0.84542,0.04026 -0.84542,0.845405 0,0.805152 -0.0402,0.845405 -0.84539,0.845405 h -0.84541 v 1.690818 1.69081 h -0.845403 c -0.80515,0 -0.84541,-0.04026 -0.84541,-0.845405 0,-0.805152 -0.04023,-0.845405 -0.845409,-0.845405 h -0.845401 v 2.536215 2.536223 h 0.845401 c 0.805149,0 0.845409,-0.04026 0.845409,-0.845405 0,-0.805153 0.04023,-0.845406 0.84541,-0.845406 0.805143,0 0.845403,0.04026 0.845403,0.845406 0,0.805145 0.0402,0.845405 0.84541,0.845405 0.80514,0 0.84539,0.04026 0.84539,0.845405 0,0.805152 0.0402,0.845405 0.84542,0.845405 h 0.8454 v 4.227033 4.227039 h -1.69082 -1.6908 v 0.845406 0.845405 h -1.690813 -1.69081 v -0.845405 c 0,-0.805152 -0.04023,-0.845406 -0.845409,-0.845406 h -0.845403 v 2.536218 2.536219 h 0.845403 c 0.805149,0 0.845409,-0.04023 0.845409,-0.845409 z m 8.454063,0 c 0,-0.805149 -0.0402,-0.845409 -0.84541,-0.845409 -0.80515,0 -0.84541,0.04023 -0.84541,0.845409 0,0.805149 0.0402,0.845409 0.84541,0.845409 0.80515,0 0.84541,-0.04023 0.84541,-0.845409 z m -16.90813,-6.76325 c 0,-0.805152 -0.04026,-0.845405 -0.845405,-0.845405 -0.805153,0 -0.845405,-0.04026 -0.845405,-0.845412 0,-0.805145 0.04026,-0.845405 0.845405,-0.845405 h 0.845405 v -1.69081 -1.690818 h 1.69081 1.690817 v 1.690818 1.69081 h 0.845406 c 0.805145,0 0.845405,0.04026 0.845405,0.845405 0,0.805152 -0.04026,0.845412 -0.845405,0.845412 -0.805146,0 -0.845406,0.04026 -0.845406,0.845405 0,0.805146 0.04026,0.845406 0.845406,0.845406 0.805145,0 0.845405,-0.04026 0.845405,-0.845406 0,-0.805152 0.04026,-0.845405 0.845405,-0.845405 h 0.845412 v -3.381627 -3.381628 h -0.845412 c -0.805145,0 -0.845405,0.04026 -0.845405,0.845405 0,0.805152 -0.04026,0.845405 -0.845405,0.845405 H 92.024947 V 77.833727 74.4521 h 1.690811 1.690817 V 73.606687 72.761282 H 92.870353 90.33413 v -0.845405 -0.845405 h 1.690817 1.690811 v -0.845405 c 0,-0.805153 -0.04026,-0.845413 -0.845405,-0.845413 -0.805146,0 -0.845406,-0.04026 -0.845406,-0.845405 0,-0.805145 -0.04026,-0.845405 -0.845405,-0.845405 -0.805152,0 -0.845412,-0.04026 -0.845412,-0.845405 0,-0.805152 -0.04026,-0.845405 -0.845405,-0.845405 -0.805145,0 -0.845405,-0.04026 -0.845405,-0.845413 0,-0.805145 -0.04026,-0.845405 -0.845405,-0.845405 -0.805153,0 -0.845405,0.04026 -0.845405,0.845405 0,0.805153 0.04026,0.845413 0.845405,0.845413 0.805145,0 0.845405,0.04026 0.845405,0.845405 0,0.805145 0.04026,0.845405 0.845405,0.845405 0.805152,0 0.845405,0.04026 0.845405,0.845405 0,0.805152 -0.04026,0.845405 -0.845405,0.845405 H 88.64332 v 1.690818 1.69081 h 0.845405 0.845405 v 1.690818 1.69081 h -0.845405 c -0.805145,0 -0.845405,-0.04026 -0.845405,-0.845405 V 74.4521 h -1.69081 -1.690818 v 2.536215 2.536223 h -0.845405 -0.845405 v 2.536223 2.536215 h 0.845405 c 0.805145,0 0.845405,0.04026 0.845405,0.845405 0,0.805152 0.04026,0.845412 0.845405,0.845412 0.805153,0 0.845413,0.04026 0.845413,0.845405 0,0.805146 0.04026,0.845406 0.845405,0.845406 0.805145,0 0.845405,-0.04026 0.845405,-0.845406 z m -3.381628,-3.381627 c 0,-0.805145 0.04026,-0.845405 0.845405,-0.845405 0.805153,0 0.845413,0.04026 0.845413,0.845405 0,0.805151 -0.04026,0.845405 -0.845413,0.845405 -0.805145,0 -0.845405,-0.04026 -0.845405,-0.845405 z m 0,-3.381628 v -0.845405 h 1.690818 1.69081 v -0.845405 c 0,-0.805153 -0.04026,-0.845406 -0.845405,-0.845406 -0.805153,0 -0.845405,-0.04026 -0.845405,-0.845412 0,-0.805145 0.04026,-0.845405 0.845405,-0.845405 0.805145,0 0.845405,0.04026 0.845405,0.845405 0,0.805152 0.04026,0.845412 0.845405,0.845412 0.805152,0 0.845405,0.04026 0.845405,0.845406 0,0.805145 -0.04026,0.845405 -0.845405,0.845405 -0.805145,0 -0.845405,0.04026 -0.845405,0.845405 v 0.845405 h -1.69081 -1.690818 z m 16.908118,5.072438 v -2.536215 h -2.536203 -2.53622 v 2.536215 2.536223 h 2.53622 2.536203 z m -3.381613,0 c 0,-0.805145 0.04023,-0.845405 0.84541,-0.845405 0.805143,0 0.845403,0.04026 0.845403,0.845405 0,0.805152 -0.0402,0.845412 -0.845403,0.845412 -0.80515,0 -0.84541,-0.04026 -0.84541,-0.845412 z M 81.880064,79.524538 v -1.690811 h -0.845405 c -0.805152,0 -0.845405,-0.04026 -0.845405,-0.845412 0,-0.805145 0.04026,-0.845405 0.845405,-0.845405 0.805152,0 0.845405,-0.04026 0.845405,-0.845405 0,-0.805152 0.04026,-0.845405 0.845405,-0.845405 0.805153,0 0.845413,-0.04026 0.845413,-0.845413 0,-0.805145 0.04026,-0.845405 0.845405,-0.845405 0.805145,0 0.845405,-0.04026 0.845405,-0.845405 0,-0.805152 0.04026,-0.845405 0.845405,-0.845405 0.805153,0 0.845413,-0.04026 0.845413,-0.845405 0,-0.805153 -0.04026,-0.845413 -0.845413,-0.845413 -0.805145,0 -0.845405,0.04026 -0.845405,0.845413 v 0.845405 h -1.69081 -1.690818 v 1.69081 1.690818 h -0.845405 c -0.805152,0 -0.845405,-0.04026 -0.845405,-0.845413 0,-0.805145 -0.04026,-0.845405 -0.845405,-0.845405 -0.805153,0 -0.845413,-0.04026 -0.845413,-0.845405 0,-0.805152 -0.04026,-0.845405 -0.845405,-0.845405 -0.805148,0 -0.845408,-0.04026 -0.845408,-0.845405 0,-0.805153 -0.04026,-0.845413 -0.845405,-0.845413 -0.805153,0 -0.845405,0.04026 -0.845405,0.845413 0,0.805145 0.04026,0.845405 0.845405,0.845405 0.805145,0 0.845405,0.04026 0.845405,0.845405 0,0.805152 0.04026,0.845405 0.845408,0.845405 0.805152,0 0.845405,0.04026 0.845405,0.845405 0,0.805153 0.04026,0.845413 0.845413,0.845413 0.805145,0 0.845405,0.04026 0.845405,0.845405 0,0.805145 -0.04026,0.845405 -0.845405,0.845405 -0.805153,0 -0.845413,0.04026 -0.845413,0.845405 0,0.805152 0.04026,0.845412 0.845413,0.845412 0.805145,0 0.845405,0.04026 0.845405,0.845406 0,0.805145 -0.04026,0.845405 -0.845405,0.845405 -0.805153,0 -0.845413,0.04026 -0.845413,0.845405 v 0.845405 h 1.690818 1.69081 z m 27.053006,0.845405 c 0,-0.805145 -0.0402,-0.845405 -0.8454,-0.845405 -0.80515,0 -0.84541,0.04026 -0.84541,0.845405 0,0.805152 0.0402,0.845405 0.84541,0.845405 0.80515,0 0.8454,-0.04026 0.8454,-0.845405 z M 75.116813,76.988315 c 0,-0.805145 0.04026,-0.845405 0.845405,-0.845405 0.805145,0 0.845405,-0.04026 0.845405,-0.845405 0,-0.805152 -0.04026,-0.845405 -0.845405,-0.845405 -0.805153,0 -0.845405,-0.04026 -0.845405,-0.845413 0,-0.805145 -0.04026,-0.845405 -0.845413,-0.845405 h -0.845405 v 2.536223 2.536222 H 74.2714 c 0.805153,0 0.845413,-0.04026 0.845413,-0.845412 z m -3.381628,-3.381628 c 0,-0.805145 -0.04026,-0.845405 -0.845413,-0.845405 -0.805145,0 -0.845405,0.04026 -0.845405,0.845405 0,0.805153 0.04026,0.845413 0.845405,0.845413 0.805153,0 0.845413,-0.04026 0.845413,-0.845413 z m 37.197885,-1.69081 v -0.845405 h -1.69081 -1.69081 v 0.845405 0.845405 h 1.69081 1.69081 z m -8.45406,-1.69081 c 0,-0.805153 -0.0402,-0.845413 -0.845403,-0.845413 -0.80515,0 -0.84541,0.04026 -0.84541,0.845413 0,0.805145 0.04023,0.845405 0.84541,0.845405 0.805143,0 0.845403,-0.04026 0.845403,-0.845405 z M 90.33413,57.543961 v -1.69081 h -1.69081 -1.69081 v 0.845405 c 0,0.805152 0.04026,0.845405 0.845405,0.845405 0.805145,0 0.845405,0.04026 0.845405,0.845412 0,0.805145 0.04026,0.845405 0.845405,0.845405 h 0.845405 z m -21.980573,2.536222 v -5.917845 h 5.917843 5.917854 v 5.917845 5.917851 H 74.2714 68.353557 Z m 10.144879,0 V 55.853151 H 74.2714 70.044367 v 4.227032 4.227033 h 4.227033 4.227036 z m -6.763251,0 v -2.536222 h 2.536215 2.536223 v 2.536222 2.536223 H 74.2714 71.735185 Z m 27.053012,0 v -5.917845 h 5.917843 5.91785 v 5.917845 5.917851 h -5.91785 -5.917843 z m 10.144873,0 v -4.227032 h -4.22703 -4.22703 v 4.227032 4.227033 h 4.22703 4.22703 z m -6.76326,0 v -2.536222 h 2.53623 2.53622 v 2.536222 2.536223 h -2.53622 -2.53623 z"
       id="path826"
       inkscape:connector-curvature="0" />
  </g>
</svg>
