<?xml version="1.0" encoding="utf-8"?>
<!-- Generator: Adobe Illustrator 24.0.1, SVG Export Plug-In . SVG Version: 6.00 Build 0)  -->
<svg version="1.1" id="Layer_1" xmlns="http://www.w3.org/2000/svg" xmlns:xlink="http://www.w3.org/1999/xlink" x="0px" y="0px"
	 viewBox="0 0 256 256" style="enable-background:new 0 0 256 256;" xml:space="preserve">
<style type="text/css">
	.st0{display:none;}
	.st1{display:inline;}
	.st2{fill:#FFFFFF;}
	.st3{fill:#00768E;}
</style>
<g id="Layer_5" class="st0">
	<g class="st1">
		<path class="st2" d="M116,220.5c-5.8,0-11.6-0.5-17.2-1.4l-12.3-23.9c6.4,12,14.1,20.4,21.9,23.7l2,0.9h2.3c0.9,0,1.9,0,2.8,0
			c1.1,0,2.4,0,3.9-0.1l2.2-0.1l2-0.9c7.8-3.4,15.6-11.9,22-24l-12.3,24.2C127.7,220,121.9,220.5,116,220.5z M161.7,209.1
			c11.6-5.7,22-13.4,30.8-23l7.9-8.5c-12.5,17-29.9,30.2-50.3,37.2L161.7,209.1z M80.6,214.4c-6.7-2.4-13.1-5.5-19.1-9.2v-0.5
			c3,1.8,6,3.4,9.2,4.9L80.6,214.4z M150.1,185.5c1.9-4.7,3.7-9.7,5.2-15l0.9-3.3l-0.5,1.8C154.1,174.9,152.2,180.4,150.1,185.5z
			 M80.9,182.9c-1.7-4.4-3.3-9.1-4.6-14.1l-0.5-1.7l0.9,3.2C78,174.7,79.3,178.9,80.9,182.9z M188.8,167.9
			c-5.1-2.3-10.6-4.4-16.5-6.2c6.8,2.1,13.2,4.5,18.9,7.3L188.8,167.9z M208.3,165c7.3-13.7,11.4-29,12.1-44.5l0,0
			c-0.7,16.4-5.2,31.8-12.6,45.5L208.3,165z M115.7,153.8L115.7,153.8z M115.6,153.8L115.6,153.8z M160.3,146.4
			c1.2-8.5,1.9-17.2,2.1-25.9l0,0c-0.2,9.3-1,18.4-2.3,27.3l-0.5,3.3L160.3,146.4z M71.8,147.6c-1.3-8.5-2-17.4-2.2-26.3l0,0
			c0.2,8.4,0.9,16.8,2.1,25l0.7,4.8L71.8,147.6z"/>
		<path d="M231.8,109h-23.1c0.2,2.3,0.3,4.7,0.3,7c0,15.7-3.9,30.6-10.9,43.6c-7.8-4-16.8-7.4-26.6-10.1c1.6-10.6,2.5-21.8,2.5-33.5
			c0-2.3,0-4.7-0.1-7h-23c0.1,2.3,0.1,4.7,0.1,7c0,9.8-0.7,19.5-2,28.8c-10.6-1.6-21.7-2.4-33.3-2.4c-11.3,0-22.3,0.8-32.6,2.3
			c-1.3-9.2-2-18.9-2-28.7c0-2.3,0-4.7,0.1-7H74c-6.1,0-11.8,2.3-16,6.1v0.9c0,11.6,0.8,22.8,2.4,33.3c-3.6,1-7.1,2-10.4,3.2v24.6
			c4.5-1.9,9.6-3.7,15.2-5.3c2.8,10.2,6.3,19.4,10.5,27.4c-9.5-4.5-18.1-10.6-25.6-18.1v30.2c18.7,13,41.5,20.6,66,20.6
			c64.1,0,116-51.9,116-116C232,113.7,231.9,111.3,231.8,109L231.8,109z M115.6,208.3c-0.9,0-1.8,0-2.7,0
			c-4.9-2.1-11.4-8.6-17.4-20.5c-3-6.1-5.7-13-7.8-20.5c8.5-1.2,17.8-1.9,27.9-1.9c10.3,0,19.8,0.7,28.6,2
			c-2.1,7.5-4.7,14.4-7.8,20.4c-5.9,11.9-12.4,18.4-17.3,20.5C118,208.3,116.8,208.3,115.6,208.3L115.6,208.3z M156.6,198.8
			c4-7.9,7.4-16.9,10.2-26.7c6.5,1.9,12.2,4,17.2,6.3C176.2,186.8,166.9,193.7,156.6,198.8L156.6,198.8z"/>
	</g>
	<g class="st1">
		<path class="st2" d="M60.4,149.3c-3.6,1-7.1,2-10.4,3.2V133c0-7.1,3.1-13.5,8-17.9v0.9C58,127.6,58.8,138.8,60.4,149.3z"/>
		<path d="M58,115.1c-4.9,4.4-8,10.8-8,17.9v19.5c3.3-1.2,6.8-2.2,10.4-3.2C58.8,138.8,58,127.6,58,116V115.1L58,115.1z"/>
	</g>
	<g class="st1">
		<path class="st2" d="M75.6,199.3c-9.5-4.5-18.1-10.6-25.6-18v-4.1c4.5-1.9,9.6-3.7,15.2-5.3C68,182,71.5,191.2,75.6,199.3z"/>
		<path d="M65.2,171.9c-5.6,1.6-10.6,3.4-15.2,5.3v4.1c7.5,7.4,16.1,13.5,25.6,18.1C71.5,191.2,68,182,65.2,171.9L65.2,171.9z"/>
	</g>
	<g class="st1">
		<path class="st2" d="M116,196.8c-2.2-1.7-6.1-6-10.2-14.2c-0.9-1.7-1.7-3.5-2.5-5.4c4-0.2,8.1-0.4,12.3-0.4c4.4,0,8.7,0.1,13,0.4
			c-0.8,1.9-1.6,3.7-2.4,5.4C122,190.9,118.2,195,116,196.8z"/>
		<path d="M115.6,165.3c-10,0-19.3,0.7-27.9,1.9c2.1,7.5,4.8,14.4,7.8,20.5c6,11.9,12.5,18.5,17.3,20.5c0.9,0,1.8,0,2.7,0
			c1.2,0,2.3,0,3.5-0.1c4.9-2.1,11.4-8.7,17.3-20.5c3-6.1,5.6-13,7.8-20.4C135.5,166.1,126,165.3,115.6,165.3L115.6,165.3z"/>
	</g>
	<g class="st1">
		<path class="st2" d="M138.8,131.9c-7.6-0.7-15.4-1.1-23.2-1.1c-7.6,0-15.1,0.3-22.5,1c-0.3-3.8-0.5-7.6-0.6-11.4h46.9
			C139.4,124.3,139.2,128.1,138.8,131.9z"/>
		<path d="M150.9,109H81.1c-0.1,2.3-0.1,4.7-0.1,7c0,9.8,0.7,19.4,2,28.7c10.4-1.5,21.3-2.3,32.6-2.3c11.6,0,22.8,0.9,33.3,2.4
			c1.3-9.3,2-18.9,2-28.8C151,113.7,151,111.3,150.9,109L150.9,109z"/>
	</g>
	<g class="st1">
		<path class="st2" d="M156.6,198.8c4-7.8,7.4-16.8,10.2-26.7c6.5,1.9,12.2,4,17.2,6.3C176.2,186.8,166.9,193.7,156.6,198.8z"/>
		<path d="M166.8,172c-2.7,9.9-6.2,18.9-10.2,26.7c10.3-5,19.6-12,27.4-20.4C179,176.1,173.3,173.9,166.8,172L166.8,172z"/>
	</g>
	<g class="st1">
		<path class="st2" d="M192.4,144.4c-2.7-1.1-5.4-2.1-8.2-3c0.7-6.8,1.2-13.8,1.3-20.8h11.9C196.9,128.7,195.2,136.7,192.4,144.4z"
			/>
		<path d="M208.7,109h-34.8c0.1,2.3,0.1,4.6,0.1,7c0,11.6-0.9,22.9-2.5,33.5c9.8,2.7,18.8,6.1,26.6,10.1c6.9-13,10.9-27.8,10.9-43.6
			C209,113.7,208.9,111.3,208.7,109L208.7,109z"/>
	</g>
</g>
<g id="Layer_2_1_">
	<path class="st3" d="M217.2,59.3c-6.8-12.2-15.8-23-26.4-31.9c-3.8-3.3-7.9-6.3-12.2-9c-2.1-1.4-4.3-2.7-6.5-3.9
		C155.5,5.3,136.4,0,116,0S76.5,5.3,59.8,14.5c-2.2,1.2-4.4,2.5-6.5,3.9c-4.3,2.7-8.3,5.8-12.2,9c-10.6,9-19.5,19.8-26.4,31.9
		C10,67.7,6.3,76.7,3.8,86.2S0,105.7,0,116c0,34.5,15.1,65.5,39,86.8v-46c-1.8,0.8-3.6,1.6-5.3,2.5C26.9,146.3,23,131.6,23,116
		c0-15.4,3.8-30.5,11-44c7.8,3.9,16.7,7.3,26.5,9.9c-1,6.3-1.7,12.9-2.1,19.7c4.7-2.3,10-3.6,15.5-3.6h7.8c0.3-3.9,0.8-7.7,1.3-11.4
		c10.5,1.6,21.6,2.4,33,2.4s22.5-0.8,32.9-2.4c0.5,3.7,1,7.5,1.3,11.4h23.1c-0.4-5.5-1-10.9-1.8-16c9.8-2.7,18.7-6,26.5-9.9
		c4.4,8.1,7.5,16.9,9.3,26h23.4C228.5,84.1,223.8,71.1,217.2,59.3z M65.4,59.4c-6.7-1.9-12.6-4.1-17.8-6.4c0.6-0.7,1.3-1.4,1.9-2
		c0.2-0.2,0.4-0.4,0.6-0.6c0.5-0.5,1-1,1.4-1.4c0.2-0.2,0.4-0.4,0.6-0.6c0.5-0.5,1.1-1,1.6-1.5c0.2-0.1,0.3-0.3,0.5-0.4
		c0.7-0.6,1.4-1.2,2.1-1.8c0.1-0.1,0.3-0.2,0.4-0.3c0.6-0.5,1.2-1,1.8-1.4c0.2-0.2,0.5-0.4,0.7-0.5c0.5-0.4,1.1-0.8,1.6-1.2
		c0.2-0.2,0.4-0.3,0.7-0.5c0.7-0.5,1.4-1,2.2-1.5c0,0,0.1,0,0.1-0.1c0.8-0.5,1.6-1,2.4-1.5c0.2-0.1,0.4-0.3,0.6-0.4
		c0.6-0.4,1.2-0.7,1.8-1.1c0.2-0.1,0.5-0.3,0.7-0.4c0.6-0.4,1.3-0.7,1.9-1.1c0.2-0.1,0.4-0.2,0.6-0.3c0.8-0.4,1.7-0.9,2.5-1.3
		c0.1,0,0.2-0.1,0.3-0.1c0.5-0.2,0.9-0.4,1.4-0.7C71.8,40.1,68.2,49.3,65.4,59.4z M116,66c-10.1,0-19.5-0.7-28-1.9
		c2.1-7.3,4.7-13.9,7.6-19.8C102.9,29.6,111.1,23,116,23s13.1,6.6,20.4,21.3c3,5.9,5.5,12.6,7.6,19.8C135.5,65.3,126.1,66,116,66z
		 M166.6,59.4c-2.8-10.1-6.4-19.3-10.6-27.3c0.5,0.2,1,0.5,1.4,0.7c0.1,0,0.1,0.1,0.2,0.1c0.9,0.4,1.7,0.9,2.5,1.3
		c0.2,0.1,0.3,0.2,0.5,0.3c0.7,0.4,1.3,0.7,2,1.1c0.2,0.1,0.4,0.3,0.6,0.4c0.6,0.4,1.3,0.8,1.9,1.2c0.2,0.1,0.3,0.2,0.5,0.3
		c1.6,1,3.2,2.1,4.7,3.2c0.2,0.1,0.4,0.3,0.5,0.4c0.6,0.4,1.2,0.9,1.8,1.3c0.2,0.1,0.4,0.3,0.6,0.4c0.7,0.5,1.3,1,2,1.6
		c0.1,0.1,0.1,0.1,0.2,0.2c0.7,0.6,1.5,1.3,2.2,1.9c0.1,0.1,0.2,0.2,0.3,0.3c0.6,0.5,1.2,1.1,1.8,1.6c0.2,0.2,0.3,0.3,0.5,0.5
		c0.5,0.5,1.1,1,1.6,1.6c0.1,0.2,0.3,0.3,0.5,0.5c0.7,0.7,1.3,1.4,2,2.1C179.3,55.3,173.3,57.5,166.6,59.4z"/>
</g>
<g id="Layer_4">
	<path class="st3" d="M245,121H74c-6.6,0-12,5.4-12,12v111c0,6.6,5.4,12,12,12h171c6.6,0,12-5.4,12-12V133
		C257,126.4,251.6,121,245,121z M234,144v33.3l-25.8-28l-55.7,50.6l-37.3-25.5L85,197.1V144H234z M85,233v-7l30.8-23.3l38.7,26.5
		l52.3-47.4l27.2,29.6V233H85z"/>
</g>
</svg>
