<?xml version="1.0" encoding="UTF-8" standalone="no"?>
<svg
   xmlns:osb="http://www.openswatchbook.org/uri/2009/osb"
   xmlns:dc="http://purl.org/dc/elements/1.1/"
   xmlns:cc="http://creativecommons.org/ns#"
   xmlns:rdf="http://www.w3.org/1999/02/22-rdf-syntax-ns#"
   xmlns:svg="http://www.w3.org/2000/svg"
   xmlns="http://www.w3.org/2000/svg"
   xmlns:sodipodi="http://sodipodi.sourceforge.net/DTD/sodipodi-0.dtd"
   xmlns:inkscape="http://www.inkscape.org/namespaces/inkscape"
   width="74.613747mm"
   height="74.613747mm"
   viewBox="0 0 74.613747 74.613746"
   version="1.1"
   id="svg8"
   inkscape:version="1.0.1 (3bc2e813f5, 2020-09-07)"
   sodipodi:docname="cloudflare3 - Copy.svg">
  <defs
     id="defs2">
    <linearGradient
       id="linearGradient1175"
       osb:paint="gradient">
      <stop
         style="stop-color:#479806;stop-opacity:1;"
         offset="0"
         id="stop1171" />
      <stop
         style="stop-color:#067f98;stop-opacity:0;"
         offset="1"
         id="stop1173" />
    </linearGradient>
    <marker
       style="overflow:visible"
       id="Arrow1Lstart"
       refX="0.0"
       refY="0.0"
       orient="auto"
       inkscape:stockid="Arrow1Lstart"
       inkscape:isstock="true">
      <path
         transform="scale(0.8) translate(12.5,0)"
         style="fill-rule:evenodd;stroke:#000000;stroke-width:1pt;stroke-opacity:1;fill:#000000;fill-opacity:1"
         d="M 0.0,0.0 L 5.0,-5.0 L -12.5,0.0 L 5.0,5.0 L 0.0,0.0 z "
         id="path2787" />
    </marker>
    <linearGradient
       id="linearGradient837"
       osb:paint="solid">
      <stop
         style="stop-color:#067f98;stop-opacity:1;"
         offset="0"
         id="stop835" />
    </linearGradient>
  </defs>
  <sodipodi:namedview
     id="base"
     pagecolor="#353535"
     bordercolor="#666666"
     borderopacity="1.0"
     inkscape:pageopacity="0"
     inkscape:pageshadow="2"
     inkscape:zoom="0.9899495"
     inkscape:cx="107.2425"
     inkscape:cy="73.304761"
     inkscape:document-units="mm"
     inkscape:current-layer="layer1"
     inkscape:document-rotation="0"
     showgrid="false"
     fit-margin-top="0"
     fit-margin-left="0"
     fit-margin-right="0"
     fit-margin-bottom="0"
     inkscape:window-width="1920"
     inkscape:window-height="1001"
     inkscape:window-x="-9"
     inkscape:window-y="-9"
     inkscape:window-maximized="1"
     inkscape:pagecheckerboard="true"
     inkscape:lockguides="false"
     showguides="true"
     inkscape:snap-object-midpoints="true" />
  <metadata
     id="metadata5">
    <rdf:RDF>
      <cc:Work
         rdf:about="">
        <dc:format>image/svg+xml</dc:format>
        <dc:type
           rdf:resource="http://purl.org/dc/dcmitype/StillImage" />
        <dc:title />
      </cc:Work>
    </rdf:RDF>
  </metadata>
  <g
     inkscape:label="Layer 1"
     inkscape:groupmode="layer"
     id="layer1"
     transform="translate(-60.408037,-105.79703)"
     style="display:inline;opacity:1;mix-blend-mode:normal">
    <path
       style="fill:#faad3f;fill-opacity:1;stroke:none;stroke-width:0.627401"
       d="m 128.6608,150.44479 v 1.88221 c -5.93773,0.0489 -12.65503,1.45401 -14.05225,8.37926 l 20.32626,-0.0945 c 0.81813,-6.48043 -4.1534,-23.7753 -14.16735,-19.19025 -2.59053,1.18579 -2.72417,6.25205 -0.69076,7.93035 2.13943,1.76551 6.0036,1.09293 8.5841,1.09293 z"
       id="path1014" />
    <path
       style="fill:#f48120;fill-opacity:1;stroke:none;stroke-width:2.37128"
       d="m 48.705078,208.20511 c 49.107369,0.13946 98.482972,0.26997 140.617192,0.1289 0,0 7.41231,-27.83891 -3.90821,-29.1289 -21.00016,-2.39244 -44.98012,-3.10167 -68.32031,-3.29688 -7.18808,13.02496 -21.070129,21.91211 -36.904297,21.91211 -6.698718,0 -13.043795,-1.59879 -18.685547,-4.41992 z"
       transform="matrix(0.26458333,0,0,0.26458333,60.408037,105.79703)"
       id="path1169" />
    <path
       style="fill:#f48120;fill-opacity:1;stroke:none;stroke-width:2.37128"
       d="m 21.529297,208.13281 27.175781,0.0723 c -9.111614,-0.0259 -18.141263,-0.047 -27.175781,-0.0723 z"
       transform="matrix(0.26458333,0,0,0.26458333,60.408037,105.79703)"
       id="path1167" />
    <path
       style="fill:#f48120;fill-opacity:1;stroke:none;stroke-width:2.37128"
       d="m 38.115234,157.25977 c -15.040376,1.90847 -27.137345,10.50759 -34.068359,25.1289 -3.5507565,7.49087 -3.87304688,25.6875 -3.87304688,25.6875 6.99722148,0.0178 14.25589888,0.0368 21.35546888,0.0566 l 24.330078,-28.14453 c -4.609008,-6.48062 -7.434247,-14.29905 -7.744141,-22.72851 z"
       transform="matrix(0.26458333,0,0,0.26458333,60.408037,105.79703)"
       id="path1165" />
    <path
       style="fill:#f48120;fill-opacity:1;stroke:none;stroke-width:2.37128"
       d="m 152.86328,79.783203 c -24.22247,0.129032 -47.66604,12.974308 -59.683592,35.894527 16.843372,5.51735 29.123042,21.42614 29.123042,40.03516 0,4.11706 -0.61018,8.09937 -1.72851,11.86914 15.07328,-0.28665 29.99239,-0.0766 39.39648,-0.084 20.302,-0.0151 24.98508,1.38589 39.74024,-8.76172 27.36457,-18.82088 18.18189,-48.34689 -5.86524,-65.740236 -12.52199,-9.057466 -26.88281,-13.287979 -40.98242,-13.212871 z"
       transform="matrix(0.26458333,0,0,0.26458333,60.408037,105.79703)"
       id="path42" />
    <circle
       style="display:inline;opacity:1;fill:#ff0000;fill-opacity:0;fill-rule:evenodd;stroke:#fcfcfc;stroke-width:5.451;stroke-miterlimit:4;stroke-dasharray:none;stroke-dashoffset:0;stroke-opacity:1"
       id="circle3074"
       cx="21.217543"
       cy="41.198303"
       r="0"
       transform="translate(60.408037,105.79703)" />
    <ellipse
       style="display:inline;opacity:1;mix-blend-mode:normal;fill:#faad3f;fill-opacity:1;stroke:none;stroke-width:3.12893;stroke-linecap:round;stroke-linejoin:miter;stroke-miterlimit:4;stroke-dasharray:none;stroke-opacity:1;paint-order:normal"
       id="path1276"
       cx="81.62558"
       cy="146.99533"
       rx="5.6696401"
       ry="5.6696444" />
  </g>
  <g
     inkscape:groupmode="layer"
     id="layer2"
     inkscape:label="Layer 2"
     style="display:inline">
    <path
       style="fill:none;stroke:#faad3f;stroke-width:2.451;stroke-linecap:round;stroke-linejoin:miter;stroke-miterlimit:4;stroke-dasharray:none;stroke-dashoffset:0;stroke-opacity:1;paint-order:normal;fill-opacity:0"
       d="M 15.603268,47.776226 5.3009269,59.694622"
       id="path2785" />
    <circle
       style="fill:none;fill-opacity:0;fill-rule:evenodd;stroke:#faad3f;stroke-width:2.451;stroke-miterlimit:4;stroke-dasharray:none;stroke-dashoffset:0;stroke-opacity:1"
       id="path10"
       cx="21.217543"
       cy="41.198303"
       r="8.4169464" />
  </g>
</svg>
