<?xml version="1.0" encoding="utf-8"?>
<!-- Generator: Adobe Illustrator 24.0.1, SVG Export Plug-In . SVG Version: 6.00 Build 0)  -->
<svg version="1.2" baseProfile="tiny" id="Layer_1" xmlns="http://www.w3.org/2000/svg" xmlns:xlink="http://www.w3.org/1999/xlink"
	 x="0px" y="0px" viewBox="0 0 751.6 539.4" xml:space="preserve">
<path fill="#3F3D58" d="M19.9,538.2c0,0.7,0.5,1.2,1.2,1.2h729.3c0.7,0,1.2-0.5,1.2-1.2s-0.5-1.2-1.2-1.2H21.1
	C20.4,537,19.9,537.6,19.9,538.2z"/>
<path fill="#E2E3E4" d="M253.4,95.2H19.5c-8.9,0-16.2-7.3-16.2-16.2s7.3-16.2,16.2-16.2h233.9c8.9,0,16.2,7.3,16.2,16.2
	S262.3,95.2,253.4,95.2z M19.5,64.8c-7.8,0-14.2,6.4-14.2,14.2s6.4,14.2,14.2,14.2h233.9c7.8,0,14.2-6.4,14.2-14.2
	s-6.4-14.2-14.2-14.2H19.5z"/>
<path fill="#FDAB66" d="M253.4,284.5H19.5c-8.6,0-15.7-7-15.7-15.7s7-15.7,15.7-15.7h233.9c8.6,0,15.7,7,15.7,15.7
	S262.1,284.5,253.4,284.5z"/>
<path fill="#E2E3E4" d="M176.8,31.4H15.7C7,31.4,0,24.3,0,15.7S7,0,15.7,0h161.1c8.6,0,15.7,7,15.7,15.7S185.4,31.4,176.8,31.4z"/>
<path fill="#E2E3E4" d="M253.4,158.4H19.5c-8.9,0-16.2-7.3-16.2-16.2s7.3-16.2,16.2-16.2h233.9c8.9,0,16.2,7.3,16.2,16.2
	S262.3,158.4,253.4,158.4z M19.5,128.1c-7.8,0-14.2,6.4-14.2,14.2s6.4,14.2,14.2,14.2h233.9c7.8,0,14.2-6.4,14.2-14.2
	s-6.4-14.2-14.2-14.2L19.5,128.1L19.5,128.1z"/>
<path fill="#E2E3E4" d="M253.4,221.7H19.5c-8.9,0-16.2-7.3-16.2-16.2s7.3-16.2,16.2-16.2h233.9c8.9,0,16.2,7.3,16.2,16.2
	S262.3,221.7,253.4,221.7z M19.5,191.4c-7.8,0-14.2,6.4-14.2,14.2s6.4,14.2,14.2,14.2h233.9c7.8,0,14.2-6.4,14.2-14.2
	s-6.4-14.2-14.2-14.2L19.5,191.4L19.5,191.4z"/>
<path fill="#E2E3E4" d="M11.5,51.2h61.3c1.5,0,2.7,1.2,2.7,2.7l0,0c0,1.5-1.2,2.7-2.7,2.7H11.5c-1.5,0-2.6-1.2-2.6-2.7l0,0
	C8.8,52.4,10,51.2,11.5,51.2z"/>
<path fill="#E2E3E4" d="M11.5,115.9h61.3c1.5,0,2.7,1.2,2.7,2.6l0,0c0,1.5-1.2,2.7-2.7,2.7H11.5c-1.5,0-2.6-1.2-2.6-2.6l0,0
	C8.8,117.1,10,115.9,11.5,115.9z"/>
<path fill="#E2E3E4" d="M11.5,180.7h61.3c1.5,0,2.7,1.2,2.7,2.6l0,0c0,1.5-1.2,2.6-2.7,2.6H11.5c-1.5,0-2.6-1.2-2.6-2.6l0,0
	C8.8,181.9,10,180.7,11.5,180.7z"/>
<g>
	<polygon fill="#9F616A" points="447.1,132.3 424.7,139.6 424.7,107.4 445,107.4 	"/>
	<circle fill="#9F616A" cx="427.5" cy="94.1" r="22.3"/>
	<path fill="#2F2E43" d="M433.6,91.8c-3.7-0.1-6.2-3.9-7.6-7.3s-2.9-7.4-6.4-8.8c-2.8-1.2-7.8,6.7-10,4.6
		c-2.3-2.2-0.1-13.4,2.4-15.4c2.5-2,5.9-2.4,9-2.5c7.8-0.4,15.6,0.3,23.2,1.9c4.7,1,9.5,2.5,13,5.9c4.3,4.3,5.4,10.8,5.7,16.9
		c0.3,6.2,0,12.8-3.1,18.2s-9.4,9.5-15.5,8.1c-0.6-3.3,0-6.7,0.3-10.1c0.2-3.3,0-7-2.1-9.6c-2-2.7-6.4-3.7-8.8-1.4"/>
	<path fill="#2F2E43" d="M461,99.6c2.2-1.6,4.9-3,7.6-2.7c3,0.4,5.5,2.8,6.2,5.7s-0.1,6.1-1.9,8.4c-1.8,2.4-4.6,3.9-7.4,4.7
		c-1.7,0.4-3.5,0.6-5.1,0c-2.3-1-3.6-4-2.7-6.4"/>
	<g>
		<path id="uuid-00bc58e7-734f-4d7c-a085-03c0cd267642-1063" fill="#9F616A" d="M375.8,309.2c-1.5,7.3,1.2,14,6.1,14.9
			s10-4.3,11.5-11.6c0.6-2.9,0.5-5.9-0.3-8.8L411.4,189l-23-4.3l-8.9,116.5C377.6,303.5,376.3,306.3,375.8,309.2L375.8,309.2
			L375.8,309.2z"/>
		<path fill="#E2E3E4" d="M424.5,124.8h-15.7c-11.1,1.7-14.1,7.6-16.7,18.6c-3.9,16.7-8.8,39-7.8,39.3c1.6,0.5,28.4,13.1,42,10.2
			L424.5,124.8L424.5,124.8L424.5,124.8z"/>
	</g>
	<rect x="418.8" y="490.4" fill="#9F616A" width="20.9" height="29.7"/>
	<path fill="#2F2E43" d="M398.4,538c-2.2,0-4.2,0-5.6-0.2c-5.6-0.5-10.9-4.6-13.5-7c-1.2-1.1-1.6-2.8-1-4.3l0,0
		c0.5-1.1,1.3-1.9,2.5-2.2l14.7-4.2l23.8-16.1l0.3,0.5c0.1,0.2,2.4,4.4,3.2,7.2c0.3,1.1,0.2,2-0.2,2.7c-0.3,0.5-0.8,0.8-1.1,0.9
		c0.4,0.5,1.8,1.4,5.9,2c6.1,1,7.4-5.3,7.4-5.6l0-0.2l0.2-0.1c2.9-1.9,4.7-2.7,5.3-2.5c0.4,0.1,1,0.3,2.8,17.4
		c0.2,0.5,1.4,4.5,0.6,8.3c-0.9,4.1-18.8,2.7-22.4,2.4C421,537.1,407.6,538,398.4,538L398.4,538L398.4,538z"/>
	
		<rect x="487.8" y="470.3" transform="matrix(0.8485 -0.5292 0.5292 0.8485 -181.2516 337.1836)" fill="#9F616A" width="20.9" height="29.7"/>
	<path fill="#2F2E43" d="M475.7,534c-2.5,0-4.7-0.3-6.3-0.6c-1.6-0.3-2.8-1.5-3.1-3.1l0,0c-0.2-1.1,0.1-2.3,0.9-3.1l10.3-11.3
		l11.7-26.2l0.5,0.3c0.2,0.1,4.4,2.4,6.6,4.4c0.8,0.8,1.2,1.6,1.2,2.4c0,0.6-0.2,1-0.5,1.4c0.6,0.2,2.2,0.2,6.1-1.4
		c5.7-2.4,3.4-8.4,3.3-8.7l-0.1-0.2l0.1-0.2c1.5-3.1,2.5-4.8,3.1-4.9c0.4-0.1,1-0.3,11.6,13.4c0.4,0.4,3.5,3.1,4.8,6.7
		c1.4,4-14.5,12.2-17.8,13.9c-0.1,0.1-16.8,12.2-23.6,15.7C481.9,533.6,478.6,534,475.7,534L475.7,534L475.7,534z"/>
	<path fill="#2F2E43" d="M455.1,241.9h-58.6l-5.3,54.5L414.4,498h29.9l-12-116.4l48.5,105.1l26.6-18.6l-37.9-98.1
		c0,0,13.5-85.5,2.9-106.8C461.9,241.9,455.1,241.9,455.1,241.9L455.1,241.9L455.1,241.9z"/>
	<polygon fill="#E2E3E4" points="484.3,245.2 391.2,245.2 419.1,124.8 459.7,124.8 	"/>
	<path id="uuid-ece83039-1aa0-468e-a846-e0cb6ecd6032-1064" fill="#9F616A" d="M492.7,309.2c1.5,7.3-1.2,14-6.1,14.9
		s-10-4.3-11.5-11.6c-0.6-2.9-0.5-5.9,0.3-8.8L457,189l23-4.3l8.9,116.5C490.8,303.5,492.1,306.3,492.7,309.2L492.7,309.2
		L492.7,309.2z"/>
	<path fill="#E2E3E4" d="M443.9,124.8h15.7c11.1,1.7,14.1,7.6,16.7,18.6c3.9,16.7,8.8,39,7.8,39.3c-1.6,0.5-28.4,13.1-42,10.2
		L443.9,124.8L443.9,124.8L443.9,124.8z"/>
</g>
</svg>
