<?xml version="1.0" encoding="utf-8"?>
<!-- Generator: Adobe Illustrator 24.0.1, SVG Export Plug-In . SVG Version: 6.00 Build 0)  -->
<svg version="1.1" id="Layer_1" xmlns="http://www.w3.org/2000/svg" xmlns:xlink="http://www.w3.org/1999/xlink" x="0px" y="0px"
	 viewBox="0 0 690 448.8" enable-background="new 0 0 690 448.8" xml:space="preserve">
<path fill="#FFFFFF" d="M445.5,25.3v218.5c0,12.3-10,22.3-22.3,22.3H80c-12.3,0-22.3-10-22.3-22.3V25.3C57.7,13,67.7,3,80,3h343.3
	C435.5,3,445.5,13,445.5,25.3z"/>
<path fill="#F2F2F2" d="M211.8,420.1c4.7-10.1,9.3-20.3,11.4-31.2s1.2-22.8-4.6-32.3s-17.2-15.9-28.1-13.8
	c-9,1.8-16.1,8.8-20.4,16.9s-5.9,17.2-7.5,26.2c-0.5-10.2-1.1-20.6-4.5-30.2s-10.1-18.6-19.6-22.3s-21.9-0.8-26.9,8.1
	c-7.1,12.5,2.3,30.1-5.8,42c-1.4-11.9-13.9-21.3-25.7-19.4s-20.7,14.8-18.3,26.5c1.4,7,6.2,12.9,11.9,17.2s12.3,9.3,18.9,12.1
	L211.8,420.1z"/>
<path fill="#FFFFFF" d="M68,372.5c9.4,3.3,18.9,6.6,27.5,11.8c7.7,4.6,14.6,10.8,18.9,18.8c2.4,4.3,3.8,9,4.1,13.9
	c0.1,1,1.7,1,1.6,0c-0.6-9.1-5-17.4-11.1-23.9c-6.7-7.2-15.4-12.1-24.4-15.9c-5.3-2.3-10.8-4.2-16.2-6.1
	C67.5,370.7,67.1,372.2,68,372.5L68,372.5z"/>
<path fill="#FFFFFF" d="M122.3,335c5.8,9.6,10.4,19.9,13.8,30.6c3.4,10.7,5.5,21.8,6.4,33c0.5,6.3,0.5,12.6,0.2,18.8
	c-0.1,1,1.5,1,1.6,0c0.6-11.3,0-22.7-2-33.8c-2-11.2-5.3-22-9.8-32.4c-2.5-5.8-5.4-11.5-8.7-17c-0.2-0.4-0.7-0.5-1.1-0.2
	C122.2,334.2,122.1,334.6,122.3,335L122.3,335z"/>
<path fill="#FFFFFF" d="M200.2,344.1c-8.2,18.4-13.9,37.7-17.1,57.6c-0.9,5.6-1.6,11.2-2.1,16.8c-0.1,1,1.5,1,1.6,0
	c1.7-19.8,6-39.3,12.7-58c1.9-5.3,4-10.4,6.2-15.6C202,344,200.6,343.2,200.2,344.1z"/>
<rect x="435.8" y="432.2" transform="matrix(0.9999 -1.293783e-02 1.293783e-02 0.9999 -5.6173 5.9762)" fill="#E6E6E6" width="46.6" height="9.9"/>
<path fill="#E6E6E6" d="M499,444h-6.7l-4.1-7.3l4.4-7.3h6.2c-4.1-5.2-11.6-6.1-16.8-2c-5.2,4.1-6.1,11.6-2,16.8
	c4.1,5.2,11.6,6.1,16.8,2C497.7,445.6,498.4,444.8,499,444L499,444z"/>
<path fill="#E6E6E6" d="M419.2,444h6.7l4.1-7.3l-4.4-7.3h-6.2c4.1-5.2,11.6-6.1,16.8-2c5.2,4.1,6.1,11.6,2,16.8
	c-4.1,5.2-11.6,6.1-16.8,2C420.6,445.6,419.8,444.8,419.2,444L419.2,444z"/>
<path fill="#3F3D56" d="M689,421H1c-0.6,0-1-0.4-1-1s0.4-1,1-1h688c0.6,0,1,0.4,1,1S689.6,421,689,421z"/>
<circle fill="#2F2E41" cx="540.5" cy="198" r="33"/>
<polygon fill="#FFB8B8" points="553.9,383.2 556.4,395.2 603.9,391.1 600.1,373.4 "/>
<path fill="#2F2E41" d="M550.2,420.7l-8-37.7l0,0l14.6-3.1l0,0l4.9,23.1C563.3,411.1,558.2,419,550.2,420.7L550.2,420.7L550.2,420.7
	z"/>
<polygon fill="#FFB8B8" points="524.1,382.6 518.8,393.6 473.7,378.3 481.6,362 "/>
<path fill="#2F2E41" d="M511.8,400l10.3-21.3l0,0l13.4,6.5l0,0l-16.8,34.7l0,0l0,0C511.3,416.3,508.2,407.4,511.8,400L511.8,400z"/>
<path fill="#FFB8B8" d="M435.3,360.8c5.8,1.1,11.4-2.8,12.5-8.6c0.1-0.6,0.2-1.3,0.2-1.9l74.4-68.6l-18.5-14.3l-67.3,71.9
	c-6,0.3-10.5,5.5-10.1,11.4C426.7,355.8,430.3,359.9,435.3,360.8z"/>
<ellipse transform="matrix(0.3162 -0.9487 0.9487 0.3162 169.48 650.9387)" fill="#FFB8B8" cx="536.3" cy="207.9" rx="24.6" ry="24.6"/>
<path fill="#FDAB66" d="M558.4,352.3c-17.2,0-38-3.6-50.8-18.5l-0.3-0.3l0.3-0.3c0.1-0.1,9.5-10.9,0.1-30.1l-12.9,4l-12.9-17
	l7.1-21.4l29.2-23.5c4.2-3.3,9.3-5.4,14.6-5.8c9.7-0.9,19.1-3.6,27.8-7.9c4-1.9,8.4-2.9,12.8-2.8h0.6c5.5,0.2,9.8,4.7,9.7,10.2
	c0,0.2,0,0.3,0,0.5c-2,25.6-5.5,87.5,4.8,108.9l0.3,0.6l-0.6,0.2C578.4,351.1,568.4,352.3,558.4,352.3z"/>
<path fill="#2F2E41" d="M511,333.5c0,0-65-6-72,13s1,28,13,32s41,9,41,9l13-16l34,2c0,0,37.9,22,48.4,45.5
	c4.6,10.4,14.5,17.4,25.8,18.2c8.4,0.6,15.9-2.6,15.9-15.7c0-30-42-73-42-73L511,333.5z"/>
<path fill="#2F2E41" d="M461.5,363c0,0,17-5,44,8"/>
<path fill="#2F2E41" d="M511.8,192.2c9.6,5.9,20.4,9.4,31.6,10.4l-3.3-4c2.4,0.9,5,1.4,7.6,1.5s5.1-1.1,6.7-3.2
	c1.3-2.1,1.5-4.8,0.5-7.1s-2.6-4.2-4.6-5.7c-7.2-5.7-16.7-7.4-25.4-4.5c-2.9,0.9-5.6,2.6-7.6,4.9c-2,2.4-2.7,5.6-1.9,8.6"/>
<path fill="#2F2E41" d="M540.3,172.6c4.4-10.1,10.9-19.2,19.1-26.5c5.3-4.7,11.5-8.7,18.4-10s14.8,0.9,19.1,6.5
	c3.5,4.6,4.2,10.8,3.8,16.6s-1.7,11.5-1.6,17.3c0.4,19.6,16.6,35.1,36.2,34.7c5-0.1,9.8-1.2,14.3-3.4c-6,3.3-10.7,8.6-16.3,12.6
	s-13,6.8-19.3,4.1c-6.7-2.8-9.8-10.4-12.2-17.3l-10.7-30.6c-1.8-5.2-3.7-10.6-7.5-14.6s-9.8-6.6-14.9-4.5c-3.9,1.6-6.4,5.3-8.6,8.8
	s-4.6,7.3-8.3,9.2s-9.3,0.7-10.5-3.3"/>
<rect x="547.9" y="317.7" transform="matrix(0.6979 -0.7162 0.7162 0.6979 -77.2113 498.9733)" fill="#E6E6E6" width="9.9" height="46.6"/>
<path fill="#E6E6E6" d="M566.5,354.3c-3.8,3.9-3.7,10.2,0.2,14s10.2,3.7,14-0.2c3.8-3.9,3.7-10.2-0.2-14S570.3,350.4,566.5,354.3z
	 M576.6,364.1c-1.6,1.7-4.3,1.7-6,0.1s-1.7-4.3-0.1-6s4.3-1.7,6-0.1C578.2,359.8,578.3,362.5,576.6,364.1L576.6,364.1z"/>
<path fill="#E6E6E6" d="M529.5,307.9l4.7,4.7l-2.3,8.1l-8.3,2l-4.4-4.4c-0.8,6.6,3.9,12.6,10.5,13.3c6.6,0.8,12.6-3.9,13.3-10.5
	c0.8-6.6-3.9-12.6-10.5-13.3C531.5,307.8,530.5,307.8,529.5,307.9L529.5,307.9z"/>
<path fill="#FFB8B8" d="M548.7,352.4c-0.4,0-0.8,0-1.3-0.1c-5.1-0.6-9.1-4.6-9.7-9.7c-0.7-6,3.6-11.5,9.7-12.2
	c0.4,0,0.8-0.1,1.2-0.1c0.5,0,1,0,1.5,0.1l33.6-35.7l-3.5-11.7l17.6-7.9l4.9,12.1c3.4,8.4,0.9,18-6.2,23.7l-37,29.4
	c0,0.4,0.1,0.7,0.1,1.1c0,3.1-1.3,6.1-3.7,8.2C554,351.4,551.4,352.4,548.7,352.4z"/>
<path fill="#FDAB66" d="M575,233.5L575,233.5c4.8-2.1,10.4,0,12.5,4.8c0.1,0.1,0.1,0.2,0.2,0.4l17.4,43.8l-27,18L575,233.5z"/>
<path fill="#CCCCCC" stroke="#CCCCCC" stroke-width="5" stroke-miterlimit="10" d="M423.2,3H80C66,3,54.7,14.3,54.7,28.3v218.5
	c0,13.9,11.3,25.2,25.3,25.3h343.3c14,0,25.3-11.3,25.3-25.3V28.3C448.5,14.3,437.2,3,423.2,3z M445.5,246.7
	c0,12.3-10,22.3-22.3,22.3H80c-12.3,0-22.3-10-22.3-22.3V28.3C57.7,16,67.7,6,80,6h343.3c12.3,0,22.3,10,22.3,22.3L445.5,246.7
	L445.5,246.7z"/>
<path fill="#CCCCCC" d="M445.5,41.7H57.7c-0.8,0-1.5-1.2-1.5-2.7s0.7-2.7,1.5-2.7l0,0h387.9c0.8,0,1.5,1.2,1.5,2.7
	C447,40.5,446.3,41.7,445.5,41.7z"/>
<circle fill="#FDAB66" cx="82.9" cy="20.8" r="7.4"/>
<circle fill="#FDAB66" cx="108.2" cy="20.8" r="7.4"/>
<circle fill="#FDAB66" cx="133.5" cy="20.8" r="7.4"/>
<path fill="#FDAB66" stroke="#FDAB66" stroke-width="5" stroke-miterlimit="10" d="M189,199.2c-0.6,0-1-0.4-1-1l0,0
	c0-10.4-4.6-16.2-11.9-22.2c-0.4-0.3-0.5-1-0.1-1.4c0.3-0.4,1-0.5,1.4-0.1l0,0c7.8,6.4,12.7,12.6,12.7,23.8
	C190,198.8,189.5,199.2,189,199.2L189,199.2z"/>
<path fill="#FDAB66" stroke="#FDAB66" stroke-width="5" stroke-miterlimit="10" d="M103.3,199.2c-0.6,0-1-0.4-1-1l0,0
	c0-11.2,4.9-17.4,12.7-23.8c0.4-0.4,1.1-0.3,1.4,0.1c0.4,0.4,0.3,1.1-0.1,1.4l0,0c-7.4,6-11.9,11.8-11.9,22.2
	C104.3,198.8,103.9,199.2,103.3,199.2L103.3,199.2z"/>
<path fill="#FDAB66" stroke="#FDAB66" stroke-width="5" stroke-miterlimit="10" d="M180.4,130.7c-0.6,0-1-0.4-1-1
	c0-0.3,0.1-0.6,0.4-0.8c7.6-6.2,8.2-14.9,8.2-24.9c0-0.6,0.4-1,1-1s1,0.4,1,1c0,10.5-0.7,19.7-8.9,26.5
	C180.9,130.6,180.6,130.7,180.4,130.7z"/>
<path fill="#FDAB66" stroke="#FDAB66" stroke-width="5" stroke-miterlimit="10" d="M111.9,130.2c-0.2,0-0.5-0.1-0.6-0.2
	c-8.3-6.7-8.9-15.7-8.9-25.9c0-0.6,0.4-1,1-1s1,0.4,1,1c0,10,0.6,18.2,8.2,24.4c0.4,0.3,0.5,1,0.1,1.4
	C112.5,130,112.2,130.2,111.9,130.2L111.9,130.2z"/>
<path fill="#FDAB66" stroke="#FDAB66" stroke-width="5" stroke-miterlimit="10" d="M201.8,152.2h-21.4c-0.6,0-1-0.4-1-1s0.4-1,1-1
	h21.4c0.6,0,1,0.4,1,1S202.4,152.2,201.8,152.2z"/>
<path fill="#FDAB66" stroke="#FDAB66" stroke-width="5" stroke-miterlimit="10" d="M111.9,152.2H90.5c-0.6,0-1-0.4-1-1s0.4-1,1-1
	h21.4c0.6,0,1,0.4,1,1S112.4,152.2,111.9,152.2z"/>
<path fill="#FDAB66" stroke="#FDAB66" stroke-width="5" stroke-miterlimit="10" d="M146.1,194.9c-0.6,0-1-0.4-1-1l0,0v-68.5
	c0-0.6,0.4-1,1-1s1,0.4,1,1v68.5C147.1,194.5,146.7,194.9,146.1,194.9L146.1,194.9z"/>
<path fill="#FDAB66" stroke="#FDAB66" stroke-width="5" stroke-miterlimit="10" d="M146.1,194.9c-19.5,0-35.2-15.8-35.3-35.3V134
	c0-16.5,13.5-26.7,35.3-26.7c22.7,0,35.3,9.5,35.3,26.7v25.7C181.4,179.2,165.6,194.9,146.1,194.9z M146.1,109.3
	c-16.1,0-33.3,6.5-33.3,24.7v25.7c0,18.4,14.9,33.3,33.2,33.3c18.4,0,33.3-14.9,33.3-33.2l0,0V134
	C179.4,112.5,158.6,109.3,146.1,109.3z"/>
<path fill="#FDAB66" stroke="#FDAB66" stroke-width="5" stroke-miterlimit="10" d="M125.7,113.4c-0.4,0-0.8-0.2-0.9-0.6
	c-0.6-1.4-0.9-3-1-4.5c0-12.3,10-22.3,22.4-22.4h0.1c12.3,0.1,22.3,10,22.4,22.4c-0.1,1.4-0.4,2.9-0.9,4.2c-0.2,0.5-0.8,0.7-1.3,0.5
	s-0.7-0.8-0.5-1.3c0.5-1.1,0.7-2.3,0.8-3.5c-0.1-11.2-9.2-20.3-20.4-20.3h-0.1C135.1,88,126,97,125.9,108.3c0.1,1.3,0.4,2.6,0.8,3.8
	c0.2,0.5,0,1.1-0.6,1.3C125.9,113.4,125.8,113.4,125.7,113.4z"/>
<path fill="#CCCCCC" d="M247.7,108h-12c-3.9,0-7-3.1-7-7s3.1-7,7-7h12c3.9,0,7,3.1,7,7S251.6,108,247.7,108z"/>
<path fill="#CCCCCC" d="M329.7,137.5h-12c-3.9,0-7-3.1-7-7s3.1-7,7-7h12c3.9,0,7,3.1,7,7C336.7,134.4,333.6,137.5,329.7,137.5z"/>
<path fill="#CCCCCC" d="M367.7,137.5h-12c-3.9,0-7-3.1-7-7s3.1-7,7-7h12c3.9,0,7,3.1,7,7C374.7,134.4,371.6,137.5,367.7,137.5z"/>
<path fill="#CCCCCC" d="M405.7,137.5h-12c-3.9,0-7-3.1-7-7s3.1-7,7-7h12c3.9,0,7,3.1,7,7C412.7,134.4,409.6,137.5,405.7,137.5z"/>
<path fill="#CCCCCC" d="M330.7,108.5h-56c-3.9,0-7-3.1-7-7s3.1-7,7-7h56c3.9,0,7,3.1,7,7S334.6,108.5,330.7,108.5z"/>
<path fill="#CCCCCC" d="M291.7,136.5h-56c-3.9,0-7-3.1-7-7s3.1-7,7-7h56c3.9,0,7,3.1,7,7C298.7,133.4,295.6,136.5,291.7,136.5z"/>
<path fill="#CCCCCC" d="M401.7,108.5h-43c-3.9,0-7-3.1-7-7s3.1-7,7-7h43c3.9,0,7,3.1,7,7S405.6,108.5,401.7,108.5z"/>
<path fill="#CCCCCC" d="M247.7,167h-12c-3.9,0-7-3.1-7-7s3.1-7,7-7h12c3.9,0,7,3.1,7,7S251.6,167,247.7,167z"/>
<path fill="#CCCCCC" d="M330.7,167.5h-56c-3.9,0-7-3.1-7-7s3.1-7,7-7h56c3.9,0,7,3.1,7,7S334.6,167.5,330.7,167.5z"/>
<path fill="#CCCCCC" d="M401.7,167.5h-43c-3.9,0-7-3.1-7-7s3.1-7,7-7h43c3.9,0,7,3.1,7,7S405.6,167.5,401.7,167.5z"/>
<path fill="#CCCCCC" d="M382.7,191c0-3.9,3.1-7,7-7h12c3.9,0,7,3.1,7,7s-3.1,7-7,7h-12C385.8,198,382.7,194.9,382.7,191z"/>
<path fill="#CCCCCC" d="M299.7,191.5c0-3.9,3.1-7,7-7h56c3.9,0,7,3.1,7,7s-3.1,7-7,7h-56C302.8,198.5,299.7,195.4,299.7,191.5z"/>
<path fill="#CCCCCC" d="M228.7,191.5c0-3.9,3.1-7,7-7h43c3.9,0,7,3.1,7,7s-3.1,7-7,7h-43C231.8,198.5,228.7,195.4,228.7,191.5z"/>
</svg>
