<?xml version="1.0" encoding="utf-8"?>
<!-- Generator: Adobe Illustrator 24.0.1, SVG Export Plug-In . SVG Version: 6.00 Build 0)  -->
<svg version="1.1" id="Layer_1" xmlns="http://www.w3.org/2000/svg" xmlns:xlink="http://www.w3.org/1999/xlink" x="0px" y="0px"
	 viewBox="0 0 697.5 461.2" enable-background="new 0 0 697.5 461.2" xml:space="preserve">
<path fill="#9F616A" d="M520.8,302.6c-1.2-3.5,0.7-7.4,4.2-8.6c0.3-0.1,0.7-0.2,1.1-0.3l3.7-15h9.5l-5.5,21.1c0.3,3.1-1.6,6-4.6,7
	C525.8,308.1,522,306.2,520.8,302.6L520.8,302.6z"/>
<path fill="#FDAB66" d="M536.9,292.9l-14.6-1l7.1-42.7l-4.5-47l14.7-6.1l9.8,52.2v0.1L536.9,292.9z"/>
<path fill="#9F616A" d="M424.1,287.9c-0.1-3.7,2.9-6.8,6.6-6.9c0.4,0,0.7,0,1.1,0.1l8-13.1l9.1,3l-11.5,18.4c-0.8,3.6-4.3,5.9-8,5.1
	C426.3,293.8,424.1,291,424.1,287.9z"/>
<polygon fill="#9F616A" points="469.1,452.2 461.3,452.2 457.6,421.8 469.1,421.8 "/>
<path fill="#2F2E41" d="M471,459.8h-25v-0.3c0-2.6,1-5.1,2.9-7c1.8-1.9,4.3-2.9,6.9-2.9l0,0h15.3L471,459.8z"/>
<polygon fill="#9F616A" points="523.2,452.2 515.4,452.2 511.7,421.8 523.2,421.8 "/>
<path fill="#2F2E41" d="M525.2,459.8h-25v-0.3c0-2.6,1-5.1,2.9-7c1.8-1.9,4.3-2.9,6.9-2.9l0,0h15.3L525.2,459.8z"/>
<ellipse fill="#9F616A" cx="515.8" cy="148.6" rx="18.4" ry="18.7"/>
<path fill="#2F2E41" d="M509.6,147.6c-5.7,2.2-12.2-0.1-15.2-5.5c-2.7-5.5-1.1-12.2,3.9-15.9c4.9-3.3,12.2-2.2,17,1.6
	c6.6-3,14.4-1.4,19.2,4c4.6,5.4,5.1,13.9,1.7,20.2c-3,6.6-2.5,14.3,1.3,20.6c-1.4-0.1-4.6-0.3-8.6-0.7c-1.1-0.1-1.6-3.5-2.9-3.6
	c-1.1-0.1-3,3.1-4.1,3c-8.6-0.7-18.2-1.5-22.6-1.3C502.3,162.4,505.8,154.9,509.6,147.6z"/>
<path fill="#2F2E41" d="M529.9,280.2c0,0,6,6.3,2.3,38.6l-2.5,68.7l-4.5,60.8l-14.4-1l-12.6-139.9l-17.7,51.2l-9.5,84.6l-13.8-1
	l-2.4-84.2l6-65L529.9,280.2z"/>
<path fill="#FDAB66" d="M470.7,296.9c-7.4,0-10.3-0.9-10.5-1l-0.3-0.1l0.1-0.4c0-0.3,5-29.5,11.8-44.9l4.8-62.2
	c0.3-3.8,3.1-6.9,6.8-7.5l0.1,0.4l-0.1-0.4l12.1-1.9l7.4-6.6l17.8,1l1.6,7.6c2.1,0.6,16.2,5,17.5,15.4v0.1l-0.1,0.1L514,246.6
	c2.2,2.2,19.3,20.1,20.5,42.9v0.5l-0.5-0.1c0,0-5.5-1.1-34.4,3.9C486.1,296.3,476.8,296.9,470.7,296.9z"/>
<path fill="#FDAB66" d="M442.2,287.6l-10.5-8.2l23.4-47.4l21.8-46.5c0.8-1.7,2.9-2.5,4.6-1.7c0.9,0.4,1.6,1.3,1.9,2.3l5.4,19.8
	L472,250.3L442.2,287.6z"/>
<path fill="#F1F1F1" d="M667.1,459.5l0.6-1.2c-8.3-4.5-18.7-10.1-24.2-19.4c-5.3-9.1-5.5-21.4-0.3-32.2c4.4-9.2,12.4-17.4,23.3-23.8
	c2.1-1.3,4.4-2.4,6.6-3.6c5.3-2.8,10.7-5.7,15.2-9.8c6.2-5.6,10.8-15.1,7.4-23.5c-2.3-5.5-7.6-9.2-13.5-9.5l-0.1,1.3
	c5.4,0.3,10.3,3.7,12.4,8.7c3.2,7.8-1.2,16.7-7,22c-4.4,4-9.7,6.8-14.9,9.6c-2.2,1.2-4.4,2.4-6.6,3.6c-11.1,6.5-19.3,14.9-23.8,24.3
	c-5.3,11.2-5.2,24,0.4,33.4C648,449.1,658.6,454.9,667.1,459.5z"/>
<ellipse fill="#F1F1F1" cx="673.8" cy="338" rx="11.5" ry="5.6"/>
<ellipse fill="#F1F1F1" cx="664.7" cy="374.6" rx="11.5" ry="5.6"/>
<ellipse fill="#F1F1F1" cx="685.6" cy="380.5" rx="11.5" ry="5.6"/>
<ellipse fill="#F1F1F1" cx="652.9" cy="411.3" rx="11.5" ry="5.6"/>
<ellipse fill="#F1F1F1" cx="630" cy="411.3" rx="11.5" ry="5.6"/>
<path fill="#CBCBCB" d="M696,461.2H322.5c-0.6,0-1-0.4-1-1s0.4-1,1-1h374c0.6,0,1,0.4,1,1C697.5,460.8,696.6,461.2,696,461.2z"/>
<path fill="#3F3D56" d="M228.5,111.8h-166c-2.8,0-5-2.2-5-5v-56c0-2.8,2.2-5,5-5h166c2.8,0,5,2.2,5,5v56
	C233.5,109.5,231.3,111.8,228.5,111.8z"/>
<rect x="83.5" y="60.8" fill="#FFFFFF" width="44" height="5"/>
<circle fill="#FDAB66" cx="185.5" cy="63.8" r="3"/>
<circle fill="#FDAB66" cx="195.5" cy="63.8" r="3"/>
<circle fill="#FDAB66" cx="205.5" cy="63.8" r="3"/>
<path fill="#3F3D56" d="M228.5,182.8h-166c-2.8,0-5-2.2-5-5v-56c0-2.8,2.2-5,5-5h166c2.8,0,5,2.2,5,5v56
	C233.5,180.5,231.3,182.8,228.5,182.8z"/>
<rect x="83.5" y="131.8" fill="#FFFFFF" width="44" height="5"/>
<circle fill="#FDAB66" cx="185.5" cy="134.8" r="3"/>
<circle fill="#FDAB66" cx="195.5" cy="134.8" r="3"/>
<circle fill="#FDAB66" cx="205.5" cy="134.8" r="3"/>
<path fill="#3F3D56" d="M228.5,253.8h-166c-2.8,0-5-2.2-5-5v-56c0-2.8,2.2-5,5-5h166c2.8,0,5,2.2,5,5v56
	C233.5,251.5,231.3,253.8,228.5,253.8z"/>
<rect x="83.5" y="202.8" fill="#FFFFFF" width="44" height="5"/>
<circle fill="#FDAB66" cx="185.5" cy="205.8" r="3"/>
<circle fill="#FDAB66" cx="195.5" cy="205.8" r="3"/>
<circle fill="#FDAB66" cx="205.5" cy="205.8" r="3"/>
<polygon fill="#CCCCCC" points="168,297.2 0,297.2 0,231 2,231 2,295.2 168,295.2 "/>
<polygon fill="#CCCCCC" points="105,0 273,0 273,66.2 271,66.2 271,2 105,2 "/>
</svg>
